 <svg width="4em" version="1.1" viewBox="0 0 752 752" xmlns="http://www.w3.org/2000/svg">
        <g>
         <rect width="752" height="752" fill="#f4d0c9"/>
         <path d="m461.1 322.61-81.395-47.027c-2.293-1.3203-5.1133-1.3203-7.4023 0l-81.395 47.027c-2.2891 1.3203-3.6992 3.7578-3.7031 6.3984v93.977c0.003906 2.6406 1.4141 5.082 3.7031 6.4023l81.395 47.023c2.3008 1.2852 5.1016 1.2852 7.4023 0l81.395-47.023c2.2891-1.3203 3.6992-3.7617 3.6992-6.4023v-93.977c0-2.6406-1.4102-5.0781-3.6992-6.3984zm-85.098-32.043 66.598 38.441-66.598 38.441-66.598-38.441zm-73.996 51.246 66.598 38.441v76.918l-66.598-38.441zm81.398 115.36v-76.918l66.598-38.441v76.918z" fill="#fa4545"/>
         <path d="m536.76 245.73c-0.36719-3.5547-3.2148-6.3398-6.7734-6.625-26.922-3.4375-53.215-10.727-78.066-21.645-25.676-10.68-49.59-25.188-70.926-43.027-2.8281-2.5859-7.1602-2.5859-9.9883 0-21.328 17.863-45.242 32.383-70.926 43.066-24.855 10.902-51.145 18.18-78.07 21.605-3.543 0.28516-6.3867 3.0508-6.7695 6.5859-0.58984 5.8086-14.133 141.41 19.02 207.64 39.625 79.102 134.6 123.61 138.63 125.5 1.9688 0.91016 4.2422 0.91016 6.2148 0 4.0312-1.8867 99.008-46.395 138.63-125.5 33.152-66.227 19.609-201.83 19.02-207.6zm-32.266 200.94c-33.297 66.598-111.92 108.85-128.5 117.18-16.574-8.3242-95.086-50.465-128.5-117.18-27.488-54.867-20.273-166.49-18.055-193.5v0.003907c26.312-4.0977 51.992-11.559 76.402-22.199 25.148-10.551 48.746-24.465 70.148-41.367 21.441 16.965 45.09 30.934 70.297 41.516 24.414 10.641 50.09 18.102 76.402 22.195 2.0742 26.68 9.2891 138.49-18.203 193.36z" fill="#fa4545"/>
        </g>
       </svg>