<svg width="468" height="444" fill="none" xmlns="http://www.w3.org/2000/svg"><path fill-rule="evenodd" clip-rule="evenodd" d="M102.658 110.879V367.26h77.974v1.732H73.222v-22.511h-31.17v-1.731h32.9v22.51h25.974V110.879h1.732zm269.456 78.046v94.672h31.169v1.732h-31.169v22.511h-12.706v-1.732h10.974V188.925h1.732z" fill="#393945"/><path d="M160.199 356.732l153.144-89.695 22.411 17.147-152.908 89.696-22.647-17.148z" fill="#83DBFF"/><path fill="#37B067" d="M264.264 428.818L413.9 337.274l18.544 14.644-149.636 91.544z"/><path fill="#379FC9" d="M182.85 373.354l139.755-81.98 5.662 4.287-139.755 81.98zm217.716-.786l26.968-16.498 5.934 4.686-26.968 16.498z"/><path fill="#6CE397" d="M252.408 419.441l149.68-91.57 23.736 18.744-149.68 91.57z"/><path fill="#6CE397" d="M273.754 436.34l-112.75-89.035 26.968-16.498 112.75 89.035z"/><path d="M400.566 372.568l-112.749-89.034 25.524-16.497 114.193 89.033-26.968 16.498z" fill="#83DBFF"/><path d="M321.85 312.035l17.016-10.384v41.226l-17.016 9.239v-40.081z" fill="#695BBD"/><path d="M321.851 312.033l17.016-10.384-17.015-9.819-17.016 9.238 17.015 10.965zm-.001.028l-17.016-10.993v40.055l17.016 10.993v-40.055z" fill="#8B7CCE"/><path d="M296.326 315.663l17.016-10.568v55.53l-17.016 10.34v-55.302z" fill="#EC625F"/><path d="M296.327 315.662l17.016-10.568-17.016-12.533-17.016 10.34 17.016 12.761z" fill="#FF988F"/><path d="M296.326 315.662L279.31 302.9v55.303l17.016 12.762v-55.303z" fill="#FF988F"/><path d="M270.803 343.607l17.016-10.92v42.772l-17.016 10.685v-42.537z" fill="#FFC066"/><path d="M270.803 343.607l17.016-10.92-17.016-12.524-17.016 10.684 17.016 12.76z" fill="#FFC066"/><path d="M270.803 343.609l-17.016-12.762v42.538l17.016 12.762v-42.538z" fill="#FFD087"/><g filter="url(#filter0_d_557_2341)"><path fill="#191925" d="M229.688 148.393H44.64v143.586h185.048z"/><path fill="#53535C" d="M61.887 165.64H92.07v12.936H61.887z"/><path fill="#C9CAD1" d="M65.768 171.245h21.991v1.725H65.768z"/><path fill="#191925" d="M61.887 179.363H92.07v12.936H61.887zm0 13.725H92.07v12.936H61.887zm0 13.724H92.07v12.936H61.887zm0 13.724H92.07v12.936H61.887z"/><path fill="#53535C" d="M61.887 234.26H92.07v12.936H61.887z"/><path fill="#C9CAD1" d="M65.768 239.865h21.991v1.725H65.768z"/><path fill="#191925" d="M61.887 247.984H92.07v12.936H61.887zm0 13.724H92.07v12.936H61.887z"/><path fill="#393945" d="M92.07 165.64h.862v109.091h-.862z"/><path fill="#53535C" d="M92.932 165.64h39.26v12.936h-39.26z"/><path fill="#C9CAD1" d="M96.813 171.319h31.931v1.577H96.813z"/><path fill="#191925" d="M92.932 179.363h39.26v12.936h-39.26z"/><path fill="#757782" d="M96.813 185.043h31.931v1.577H96.813z"/><path fill="#191925" d="M92.932 193.088h39.26v12.936h-39.26z"/><path fill="#757782" d="M96.813 198.768h31.931v1.577H96.813z"/><path fill="#191925" d="M92.932 206.812h39.26v12.936h-39.26z"/><path fill="#757782" d="M96.813 212.491h31.931v1.577H96.813z"/><path fill="#191925" d="M92.932 220.536h39.26v12.936h-39.26z"/><path fill="#757782" d="M96.813 226.216h31.931v1.577H96.813z"/><path fill="#53535C" d="M92.932 234.26h39.26v12.936h-39.26z"/><path fill="#C9CAD1" d="M96.813 239.939h31.931v1.577H96.813z"/><path fill="#191925" d="M92.932 247.984h39.26v12.936h-39.26z"/><path fill="#757782" d="M96.813 253.664h31.931v1.577H96.813z"/><path fill="#191925" d="M92.932 261.708h39.26v12.936h-39.26z"/><path fill="#757782" d="M96.813 267.388h31.931v1.577H96.813z"/><path fill="#393945" d="M132.193 165.64h.862v109.091h-.862z"/><path fill="#53535C" d="M133.055 165.64h39.261v12.936h-39.261z"/><path fill="#C9CAD1" d="M136.936 171.319h31.931v1.577h-31.931z"/><path fill="#191925" d="M133.055 179.363h39.261v12.936h-39.261z"/><path fill="#757782" d="M136.936 185.043h31.931v1.577h-31.931z"/><path fill="#191925" d="M133.055 193.088h39.261v12.936h-39.261z"/><path fill="#757782" d="M136.936 198.768h31.931v1.577h-31.931z"/><path fill="#191925" d="M133.055 206.812h39.261v12.936h-39.261z"/><path fill="#757782" d="M136.936 212.491h31.931v1.577h-31.931z"/><path fill="#191925" d="M133.055 220.536h39.261v12.936h-39.261z"/><path fill="#757782" d="M136.936 226.216h31.931v1.577h-31.931z"/><path fill="#53535C" d="M133.055 234.26h39.261v12.936h-39.261z"/><path fill="#C9CAD1" d="M136.936 239.939h31.931v1.577h-31.931z"/><path fill="#191925" d="M133.055 247.984h39.261v12.936h-39.261z"/><path fill="#757782" d="M136.936 253.664h31.931v1.577h-31.931z"/><path fill="#191925" d="M133.055 261.708h39.261v12.936h-39.261z"/><path fill="#757782" d="M136.936 267.388h31.931v1.577h-31.931z"/><path fill="#393945" d="M172.316 165.64h.862v109.091h-.862z"/><path fill="#53535C" d="M173.178 165.64h39.261v12.936h-39.261z"/><path fill="#C9CAD1" d="M177.059 171.319h31.931v1.577h-31.931z"/><path fill="#191925" d="M173.178 179.363h39.261v12.936h-39.261z"/><path fill="#757782" d="M177.059 185.043h31.931v1.577h-31.931z"/><path fill="#191925" d="M173.178 193.088h39.261v12.936h-39.261z"/><path fill="#757782" d="M177.059 198.768h31.931v1.577h-31.931z"/><path fill="#191925" d="M173.178 206.812h39.261v12.936h-39.261z"/><path fill="#757782" d="M177.059 212.491h31.931v1.577h-31.931z"/><path fill="#191925" d="M173.178 220.536h39.261v12.936h-39.261z"/><path fill="#757782" d="M177.059 226.216h31.931v1.577h-31.931z"/><path fill="#53535C" d="M173.178 234.26h39.261v12.936h-39.261z"/><path fill="#C9CAD1" d="M177.059 239.939h31.931v1.577h-31.931z"/><path fill="#191925" d="M173.178 247.984h39.261v12.936h-39.261z"/><path fill="#757782" d="M177.059 253.664h31.931v1.577h-31.931z"/><path fill="#191925" d="M173.178 261.708h39.261v12.936h-39.261z"/><path fill="#757782" d="M177.059 267.388h31.931v1.577h-31.931z"/><path stroke="#53535C" stroke-width=".862" d="M61.456 165.208h151.415v109.953H61.456z"/></g><g filter="url(#filter1_d_557_2341)"><path fill="#191925" d="M166.234 40.165H76.547v81.495h89.687z"/><path fill="#B1B2BA" d="M101.73 66.568h7v38.807h-7zm8-15h7v54h-7z"/><path fill="#E4E7ED" d="M117.73 77.568h7v28h-7z"/><path fill="#B1B2BA" d="M125.73 68.568h7v37h-7zm8 3h7v34h-7zm8-2h7v36h-7z"/><path fill="#757782" d="M93.731 81.568h7v24h-7zm7.999-8h7v32h-7zm8 2h7v30h-7zm8-1h7v31h-7zm8 8h7v23h-7zm8-4h7v27h-7v-27zm8 5h7v22h-7z"/></g><g filter="url(#filter2_d_557_2341)"><path fill="#191925" d="M455.133 44.477H225.309v144.448h229.824z"/><path fill="#53535C" d="M248.594 147.67h184.939v1.491H248.594zm0-52.176h184.939v1.491H248.594zm0-23.852h184.939v1.491H248.594zm0 49.197h184.939v1.491H248.594z"/><path fill-rule="evenodd" clip-rule="evenodd" d="M248.594 162.312l14.078-14.114 14.719-25.02 16.638 25.02 15.358-12.19 15.998-13.472 14.718-26.303 15.999 14.433 15.998 38.173 15.358-26.945 16.638-11.228 14.719-25.981 14.718-11.548V174.5H248.594v-12.189z" fill="#A3E0FF"/><path fill-rule="evenodd" clip-rule="evenodd" d="M248.594 163.996l14.078-8.718 14.719-15.453 16.638 15.453 15.358-7.528 15.998-8.322 14.718-16.246 15.999 8.915 15.998 23.578 15.358-16.643 16.638-6.935 14.719-16.047 14.718-7.133v62.608H248.594v-7.529z" fill="#68C3EC"/><path fill-rule="evenodd" clip-rule="evenodd" d="M248.594 172.045l14.078-4.566 14.719-8.095 16.638 8.095 15.358-3.944 15.998-4.359 14.718-8.51 15.999 4.67 15.998 12.35 15.358-8.717 16.638-3.633 14.719-8.406 14.718-3.736v32.795H248.594v-3.944z" fill="#FF89AB"/><path stroke="#D9D4ED" stroke-width="2.587" stroke-dasharray="5.17 5.17" d="M294.731 123.384v53.467"/><g filter="url(#filter3_d_557_2341)"><path d="M385.692 110.017H298.63c-.249 0-.45.35-.45.781v33.622c0 .432.201.782.45.782h87.062c.249 0 .45-.35.45-.782v-33.622c0-.431-.201-.781-.45-.781z" fill="#53535C"/></g><rect x="306.977" y="118.635" width="13.284" height="5.744" rx=".718" fill="#393945"/><rect x="324.209" y="118.635" width="26.927" height="5.744" rx=".718" fill="#B1B2BA"/><rect x="306.977" y="130.842" width="13.284" height="5.744" rx=".718" fill="#393945"/><rect x="324.029" y="130.842" width="53.495" height="5.744" rx=".718" fill="#B1B2BA"/><path fill-rule="evenodd" clip-rule="evenodd" d="M293.869 148.394l5.034 12.073 1.787-5.258 5.261-1.786-12.082-5.029z" fill="#191925" stroke="#191925" stroke-width="1.005" stroke-linecap="round" stroke-linejoin="round"/><path fill-rule="evenodd" clip-rule="evenodd" d="M301.223 155.743l4.202 4.2-4.202-4.2z" fill="#191925"/><path d="M301.223 155.743l4.202 4.2" stroke="#191925" stroke-width="1.005" stroke-linecap="round" stroke-linejoin="round"/><g filter="url(#filter4_d_557_2341)"><rect x="258.734" y="56.568" width="45.275" height="45.275" rx=".862" fill="#393945"/><path fill-rule="evenodd" clip-rule="evenodd" d="M289.123 71.641V83.59l-.002.002-.004.002s-5.785-.008-9.493-.008c0 0-.28-.008-.459 0-.217.009-.322-.016-.552.051l-5.102 1.703V72.611c.012-.01-.015.006 0 0h15.612v-.97zm-.005 13.698c1.075 0 1.956-.784 1.956-1.746V72.61c0-.95-.885-1.813-1.951-1.813h-15.612c-.979 0-1.952.778-1.952 1.813v15.415l7.675-2.687h9.884z" fill="#fff"/></g></g><g filter="url(#filter5_d_557_2341)"><rect x="205.904" y="22.917" width="45.275" height="45.275" rx=".862" fill="#393945"/><path fill="#393945" d="M218.408 34.99h20.266v18.54h-20.266z"/><path d="M218.193 36.283c0-.476.386-.862.863-.862h4.312c.476 0 .862.386.862.862v15.954a.862.862 0 0 1-.862.863h-4.312a.862.862 0 0 1-.863-.863V36.283z" fill="#4CAED9"/><rect x="225.523" y="35.421" width="6.037" height="17.679" rx=".862" fill="#EDA94E"/><path d="M232.854 36.283c0-.476.386-.862.862-.862h4.312c.476 0 .862.386.862.862v15.954a.862.862 0 0 1-.862.863h-4.312a.862.862 0 0 1-.862-.863V36.283z" fill="#EC625F"/></g><g filter="url(#filter6_d_557_2341)"><rect x="12.732" y="120.365" width="45.275" height="45.275" rx=".862" fill="#393945"/><path fill-rule="evenodd" clip-rule="evenodd" d="M25.236 134.247a.26.26 0 0 1 .259-.259h18.796a.26.26 0 0 1 .259.259v4.149a.259.259 0 0 1-.26.258h-2.474a.259.259 0 0 1-.259-.258v-1.762h-4.689v12.018h3.71a.26.26 0 0 1 .259.259v2.046a.259.259 0 0 1-.259.259h-3.71v.001h-3.639v-.001h-3.711a.259.259 0 0 1-.259-.259v-2.046a.26.26 0 0 1 .259-.259h3.711v-12.018h-5v1.762a.259.259 0 0 1-.26.258h-2.474a.259.259 0 0 1-.259-.258v-4.149z" fill="#fff"/></g><g filter="url(#filter7_d_557_2341)"><rect x="45.502" y="12.568" width="45.275" height="45.275" rx=".862" fill="#393945"/><path fill-rule="evenodd" clip-rule="evenodd" d="M68.018 33.265a3.45 3.45 0 1 0 0-6.899 3.45 3.45 0 0 0 0 6.9zm-6.131 11.182a3.45 3.45 0 1 0 0-6.9 3.45 3.45 0 0 0 0 6.9zm15.712-3.45a3.45 3.45 0 1 1-6.899 0 3.45 3.45 0 0 1 6.899 0z" fill="#fff"/></g><path d="M410.288 295.427c5.478 0 9.918-4.44 9.918-9.917 0-5.477-4.44-9.917-9.918-9.917-5.477 0-9.917 4.44-9.917 9.917 0 5.477 4.44 9.917 9.917 9.917z" fill="#FFA5BC"/><path d="M198.175 99.3a7.792 7.792 0 1 0 0-15.586 7.792 7.792 0 0 0 0 15.585z" fill="#6CE397"/><path d="M41.215 351.962a6.061 6.061 0 1 0-.001-12.122 6.061 6.061 0 0 0 0 12.122z" fill="#FF988F"/><path fill-rule="evenodd" clip-rule="evenodd" d="M317.611 241.156a7.359 7.359 0 0 0 7.359-7.359 7.358 7.358 0 0 0-7.359-7.359 7.359 7.359 0 1 0 0 14.718z" fill="#A3E0FF"/><defs><filter id="filter0_d_557_2341" x="32.107" y="136.642" width="210.115" height="168.654" filterUnits="userSpaceOnUse" color-interpolation-filters="sRGB"><feFlood flood-opacity="0" result="BackgroundImageFix"/><feColorMatrix in="SourceAlpha" values="0 0 0 0 0 0 0 0 0 0 0 0 0 0 0 0 0 0 127 0" result="hardAlpha"/><feOffset dy=".783"/><feGaussianBlur stdDeviation="6.267"/><feComposite in2="hardAlpha" operator="out"/><feColorMatrix values="0 0 0 0 0 0 0 0 0 0 0 0 0 0 0 0 0 0 0.16 0"/><feBlend in2="BackgroundImageFix" result="effect1_dropShadow_557_2341"/><feBlend in="SourceGraphic" in2="effect1_dropShadow_557_2341" result="shape"/></filter><filter id="filter1_d_557_2341" x="64.013" y="28.414" width="114.756" height="106.563" filterUnits="userSpaceOnUse" color-interpolation-filters="sRGB"><feFlood flood-opacity="0" result="BackgroundImageFix"/><feColorMatrix in="SourceAlpha" values="0 0 0 0 0 0 0 0 0 0 0 0 0 0 0 0 0 0 127 0" result="hardAlpha"/><feOffset dy=".783"/><feGaussianBlur stdDeviation="6.267"/><feComposite in2="hardAlpha" operator="out"/><feColorMatrix values="0 0 0 0 0 0 0 0 0 0 0 0 0 0 0 0 0 0 0.16 0"/><feBlend in2="BackgroundImageFix" result="effect1_dropShadow_557_2341"/><feBlend in="SourceGraphic" in2="effect1_dropShadow_557_2341" result="shape"/></filter><filter id="filter2_d_557_2341" x="212.775" y="32.726" width="254.892" height="169.516" filterUnits="userSpaceOnUse" color-interpolation-filters="sRGB"><feFlood flood-opacity="0" result="BackgroundImageFix"/><feColorMatrix in="SourceAlpha" values="0 0 0 0 0 0 0 0 0 0 0 0 0 0 0 0 0 0 127 0" result="hardAlpha"/><feOffset dy=".783"/><feGaussianBlur stdDeviation="6.267"/><feComposite in2="hardAlpha" operator="out"/><feColorMatrix values="0 0 0 0 0 0 0 0 0 0 0 0 0 0 0 0 0 0 0.16 0"/><feBlend in2="BackgroundImageFix" result="effect1_dropShadow_557_2341"/><feBlend in="SourceGraphic" in2="effect1_dropShadow_557_2341" result="shape"/></filter><filter id="filter3_d_557_2341" x="286.691" y="101.4" width="110.941" height="58.163" filterUnits="userSpaceOnUse" color-interpolation-filters="sRGB"><feFlood flood-opacity="0" result="BackgroundImageFix"/><feColorMatrix in="SourceAlpha" values="0 0 0 0 0 0 0 0 0 0 0 0 0 0 0 0 0 0 127 0" result="hardAlpha"/><feOffset dy="2.872"/><feGaussianBlur stdDeviation="5.744"/><feColorMatrix values="0 0 0 0 0.458824 0 0 0 0 0.466667 0 0 0 0 0.509804 0 0 0 0.16 0"/><feBlend in2="BackgroundImageFix" result="effect1_dropShadow_557_2341"/><feBlend in="SourceGraphic" in2="effect1_dropShadow_557_2341" result="shape"/></filter><filter id="filter4_d_557_2341" x="246.2" y="44.818" width="70.344" height="70.343" filterUnits="userSpaceOnUse" color-interpolation-filters="sRGB"><feFlood flood-opacity="0" result="BackgroundImageFix"/><feColorMatrix in="SourceAlpha" values="0 0 0 0 0 0 0 0 0 0 0 0 0 0 0 0 0 0 127 0" result="hardAlpha"/><feOffset dy=".783"/><feGaussianBlur stdDeviation="6.267"/><feComposite in2="hardAlpha" operator="out"/><feColorMatrix values="0 0 0 0 0 0 0 0 0 0 0 0 0 0 0 0 0 0 0.16 0"/><feBlend in2="BackgroundImageFix" result="effect1_dropShadow_557_2341"/><feBlend in="SourceGraphic" in2="effect1_dropShadow_557_2341" result="shape"/></filter><filter id="filter5_d_557_2341" x="193.37" y="11.166" width="70.344" height="70.343" filterUnits="userSpaceOnUse" color-interpolation-filters="sRGB"><feFlood flood-opacity="0" result="BackgroundImageFix"/><feColorMatrix in="SourceAlpha" values="0 0 0 0 0 0 0 0 0 0 0 0 0 0 0 0 0 0 127 0" result="hardAlpha"/><feOffset dy=".783"/><feGaussianBlur stdDeviation="6.267"/><feComposite in2="hardAlpha" operator="out"/><feColorMatrix values="0 0 0 0 0 0 0 0 0 0 0 0 0 0 0 0 0 0 0.16 0"/><feBlend in2="BackgroundImageFix" result="effect1_dropShadow_557_2341"/><feBlend in="SourceGraphic" in2="effect1_dropShadow_557_2341" result="shape"/></filter><filter id="filter6_d_557_2341" x=".198" y="108.615" width="70.344" height="70.343" filterUnits="userSpaceOnUse" color-interpolation-filters="sRGB"><feFlood flood-opacity="0" result="BackgroundImageFix"/><feColorMatrix in="SourceAlpha" values="0 0 0 0 0 0 0 0 0 0 0 0 0 0 0 0 0 0 127 0" result="hardAlpha"/><feOffset dy=".783"/><feGaussianBlur stdDeviation="6.267"/><feComposite in2="hardAlpha" operator="out"/><feColorMatrix values="0 0 0 0 0 0 0 0 0 0 0 0 0 0 0 0 0 0 0.16 0"/><feBlend in2="BackgroundImageFix" result="effect1_dropShadow_557_2341"/><feBlend in="SourceGraphic" in2="effect1_dropShadow_557_2341" result="shape"/></filter><filter id="filter7_d_557_2341" x="32.968" y=".818" width="70.344" height="70.343" filterUnits="userSpaceOnUse" color-interpolation-filters="sRGB"><feFlood flood-opacity="0" result="BackgroundImageFix"/><feColorMatrix in="SourceAlpha" values="0 0 0 0 0 0 0 0 0 0 0 0 0 0 0 0 0 0 127 0" result="hardAlpha"/><feOffset dy=".783"/><feGaussianBlur stdDeviation="6.267"/><feComposite in2="hardAlpha" operator="out"/><feColorMatrix values="0 0 0 0 0 0 0 0 0 0 0 0 0 0 0 0 0 0 0.16 0"/><feBlend in2="BackgroundImageFix" result="effect1_dropShadow_557_2341"/><feBlend in="SourceGraphic" in2="effect1_dropShadow_557_2341" result="shape"/></filter></defs></svg>