<svg width="4em"  version="1.1" viewBox="0 0 752 752" xmlns="http://www.w3.org/2000/svg">
        <g>
         <rect width="752" height="752" fill="#fce4ff"/>
         <path d="m538.68 232.59c0-4.3398-3.5508-7.8945-7.8945-7.8945h-309.56c-4.3398 0-7.8945 3.5508-7.8945 7.8945v216.5h325.35zm-57.434 90.16c0 4.3633-3.5352 7.8945-7.8945 7.8945s-7.8945-3.5312-7.8945-7.8945v-20.93l-90.871 90.902c-2.9609 2.9609-8.2031 2.9609-11.16 0l-26.219-26.223-52.969 52.969c-1.543 1.543-3.5625 2.3125-5.582 2.3125-2.0195 0-4.0391-0.76953-5.582-2.3125-3.082-3.082-3.082-8.0781 0-11.16l58.551-58.551c1.4805-1.4805 3.4883-2.3125 5.582-2.3125s4.1016 0.83203 5.582 2.3125l26.219 26.223 85.297-85.324h-20.883c-4.3594 0-7.8945-3.5312-7.8945-7.8945 0-4.3633 3.5352-7.8945 7.8945-7.8945h39.93c0.027344 0 0.050782 0.015625 0.078125 0.015625 1 0.011719 1.9961 0.20312 2.9336 0.58984 1.9336 0.80078 3.4727 2.3359 4.2734 4.2695 0.39844 0.96484 0.60938 1.9883 0.60938 3.0156z" fill="#eb6ed4"/>
         <path d="m563.62 467.72c-1.5-1.8164-3.7891-2.8398-6.0781-2.8398h-139.07c-3.1562 0-6 1.8945-7.2617 4.8164l-4.8945 11.523h-60.617l-4.8164-11.523c-1.1836-2.9219-4.1055-4.8164-7.2617-4.8164h-139.15c-2.2891 0-4.5781 1.0273-6.0781 2.8398-1.5 1.7344-2.1289 4.1055-1.7344 6.3945 5.3672 30.863 31.887 53.199 63.145 53.199h252.42c31.258 0 57.777-22.336 63.145-53.199 0.39453-2.2891-0.23828-4.6602-1.7383-6.3945z" fill="#eb6ed4"/>
        </g>
       </svg>