<svg width="4em"  version="1.1" viewBox="0 0 752 752" xmlns="http://www.w3.org/2000/svg">
        <g>
         <rect width="752" height="752" fill="#fff3d6"/>
         <path d="m283.18 270.87c-4.2617-4.2617-11.367-4.2617-15.629 0l-98.031 98.031c-4.2617 4.2617-4.2617 11.367 0 15.629l98.031 98.031c2.3672 2.3672 4.7344 3.3164 7.5781 3.3164 2.8398 0 5.6836-0.94531 7.5781-3.3164 4.2617-4.2617 4.2617-11.367 0-15.629l-89.98-90.453 90.453-90.453c4.2617-3.793 4.2617-10.895 0-15.156z" fill="#ffbf5b"/>
         <path d="m590.54 368.9-98.031-98.031c-4.2617-4.2617-11.367-4.2617-15.629 0-4.2617 4.2617-4.2617 11.367 0 15.629l90.453 90.453-90.453 89.98c-4.2617 4.2617-4.2617 11.367 0 15.629 2.3672 2.3672 4.7344 3.3164 7.5781 3.3164 2.8398 0 5.6836-0.94531 7.5781-3.3164l98.031-98.031c4.7344-4.2656 4.7344-11.367 0.47266-15.629z" fill="#ffbf5b"/>
         <path d="m428.57 194.14c-5.6836-1.8945-11.84 1.4219-13.734 7.1055l-108.45 344.29c-1.8945 5.6836 1.4219 11.84 7.1055 13.734 0.94531 0.47266 2.3672 0.47266 3.3164 0.47266 4.7344 0 8.9961-2.8398 10.418-7.5781l108.45-344.77c1.8906-5.6836-1.4258-11.84-7.1055-13.262z" fill="#ffbf5b"/>
        </g>
       </svg>