<svg width="70" height="98" viewBox="0 0 70 98" fill="none" xmlns="http://www.w3.org/2000/svg">
<path d="M68.0762 47.0371L4.09181 0.513672C3.74156 0.259386 3.32774 0.10705 2.89621 0.0735572C2.46468 0.040064 2.03231 0.126718 1.64702 0.323915C1.26172 0.521111 0.938566 0.821151 0.713356 1.19077C0.488147 1.56039 0.369687 1.98515 0.371106 2.41797V95.4648C0.371801 95.8968 0.49156 96.3202 0.717219 96.6885C0.942877 97.0569 1.2657 97.3558 1.65022 97.5526C2.03473 97.7494 2.46607 97.8364 2.89681 97.8041C3.32755 97.7717 3.74103 97.6212 4.09181 97.3691L68.0762 50.8164C68.3785 50.6026 68.6251 50.3195 68.7952 49.9906C68.9654 49.6618 69.0543 49.297 69.0543 48.9268C69.0543 48.5565 68.9654 48.1917 68.7952 47.8629C68.6251 47.5341 68.3785 47.2509 68.0762 47.0371V47.0371Z" fill="white"/>
</svg>
